<?xml version="1.0" encoding="UTF-8"?><svg xmlns="http://www.w3.org/2000/svg" xmlns:xlink="http://www.w3.org/1999/xlink" fill-opacity="1" color-rendering="auto" color-interpolation="auto" text-rendering="auto" stroke="black" stroke-linecap="square" width="483" stroke-miterlimit="10" shape-rendering="auto" stroke-opacity="1" fill="black" stroke-dasharray="none" font-weight="normal" stroke-width="1" height="768" font-family="'Dialog'" font-style="normal" stroke-linejoin="miter" font-size="12px" stroke-dashoffset="0" image-rendering="auto">
  <!--Generated by ySVG 2.5-->
  <defs id="genericDefs"/>
  <g>
    <defs id="defs1">
      <clipPath clipPathUnits="userSpaceOnUse" id="clipPath1">
        <path d="M0 0 L483 0 L483 768 L0 768 L0 0 Z"/>
      </clipPath>
      <clipPath clipPathUnits="userSpaceOnUse" id="clipPath2">
        <path d="M362 104 L845 104 L845 872 L362 872 L362 104 Z"/>
      </clipPath>
    </defs>
    <g fill="white" text-rendering="geometricPrecision" shape-rendering="geometricPrecision" transform="translate(-362,-104)" stroke="white">
      <rect x="362" width="483" height="768" y="104" clip-path="url(#clipPath2)" stroke="none"/>
    </g>
    <g fill="rgb(238,255,204)" text-rendering="geometricPrecision" shape-rendering="geometricPrecision" transform="matrix(1,0,0,1,-362,-104)" stroke="rgb(238,255,204)">
      <rect x="597" width="90" height="30" y="179.5" clip-path="url(#clipPath2)" stroke="none"/>
    </g>
    <g text-rendering="geometricPrecision" stroke-miterlimit="1.45" shape-rendering="geometricPrecision" transform="matrix(1,0,0,1,-362,-104)" stroke-linecap="butt">
      <rect fill="none" x="597" width="90" height="30" y="179.5" clip-path="url(#clipPath2)"/>
      <text x="605.9824" xml:space="preserve" y="199.2139" clip-path="url(#clipPath2)" font-family="sans-serif" stroke="none">par_S1_GRD</text>
    </g>
    <g fill="rgb(238,255,204)" text-rendering="geometricPrecision" shape-rendering="geometricPrecision" transform="matrix(1,0,0,1,-362,-104)" stroke="rgb(238,255,204)">
      <rect x="712" width="90" height="30" y="236.5" clip-path="url(#clipPath2)" stroke="none"/>
    </g>
    <g text-rendering="geometricPrecision" stroke-miterlimit="1.45" shape-rendering="geometricPrecision" transform="matrix(1,0,0,1,-362,-104)" stroke-linecap="butt">
      <rect fill="none" x="712" width="90" height="30" y="236.5" clip-path="url(#clipPath2)"/>
      <text x="715.9814" xml:space="preserve" y="256.2139" clip-path="url(#clipPath2)" font-family="sans-serif" stroke="none">S1_OPOD_vec</text>
    </g>
    <g fill="rgb(238,255,204)" text-rendering="geometricPrecision" shape-rendering="geometricPrecision" transform="matrix(1,0,0,1,-362,-104)" stroke="rgb(238,255,204)">
      <rect x="597" width="90" height="30" y="299.5" clip-path="url(#clipPath2)" stroke="none"/>
    </g>
    <g text-rendering="geometricPrecision" stroke-miterlimit="1.45" shape-rendering="geometricPrecision" transform="matrix(1,0,0,1,-362,-104)" stroke-linecap="butt">
      <rect fill="none" x="597" width="90" height="30" y="299.5" clip-path="url(#clipPath2)"/>
      <text x="601.6494" xml:space="preserve" y="319.2139" clip-path="url(#clipPath2)" font-family="sans-serif" stroke="none">multi_look_MLI</text>
    </g>
    <g fill="rgb(238,255,204)" text-rendering="geometricPrecision" shape-rendering="geometricPrecision" transform="matrix(1,0,0,1,-362,-104)" stroke="rgb(238,255,204)">
      <rect x="398" width="90" height="30" y="366" clip-path="url(#clipPath2)" stroke="none"/>
    </g>
    <g text-rendering="geometricPrecision" stroke-miterlimit="1.45" shape-rendering="geometricPrecision" transform="matrix(1,0,0,1,-362,-104)" stroke-linecap="butt">
      <rect fill="none" x="398" width="90" height="30" y="366" clip-path="url(#clipPath2)"/>
      <text x="421.6543" xml:space="preserve" y="385.7139" clip-path="url(#clipPath2)" font-family="sans-serif" stroke="none">gc_map</text>
    </g>
    <g fill="rgb(238,255,204)" text-rendering="geometricPrecision" shape-rendering="geometricPrecision" transform="matrix(1,0,0,1,-362,-104)" stroke="rgb(238,255,204)">
      <rect x="597" width="90" height="30" y="513.75" clip-path="url(#clipPath2)" stroke="none"/>
    </g>
    <g text-rendering="geometricPrecision" stroke-miterlimit="1.45" shape-rendering="geometricPrecision" transform="matrix(1,0,0,1,-362,-104)" stroke-linecap="butt">
      <rect fill="none" x="597" width="90" height="30" y="513.75" clip-path="url(#clipPath2)"/>
      <text x="614.3145" xml:space="preserve" y="533.4639" clip-path="url(#clipPath2)" font-family="sans-serif" stroke="none">pixel_area</text>
    </g>
    <g fill="rgb(238,255,204)" text-rendering="geometricPrecision" shape-rendering="geometricPrecision" transform="matrix(1,0,0,1,-362,-104)" stroke="rgb(238,255,204)">
      <rect x="739.5" width="90" height="30" y="573.75" clip-path="url(#clipPath2)" stroke="none"/>
    </g>
    <g text-rendering="geometricPrecision" stroke-miterlimit="1.45" shape-rendering="geometricPrecision" transform="matrix(1,0,0,1,-362,-104)" stroke-linecap="butt">
      <rect fill="none" x="739.5" width="90" height="30" y="573.75" clip-path="url(#clipPath2)"/>
      <text x="764.4873" xml:space="preserve" y="593.4639" clip-path="url(#clipPath2)" font-family="sans-serif" stroke="none">product</text>
    </g>
    <g fill="rgb(238,255,204)" text-rendering="geometricPrecision" shape-rendering="geometricPrecision" transform="matrix(1,0,0,1,-362,-104)" stroke="rgb(238,255,204)">
      <rect x="597" width="90" height="30" y="646.75" clip-path="url(#clipPath2)" stroke="none"/>
    </g>
    <g text-rendering="geometricPrecision" stroke-miterlimit="1.45" shape-rendering="geometricPrecision" transform="matrix(1,0,0,1,-362,-104)" stroke-linecap="butt">
      <rect fill="none" x="597" width="90" height="30" y="646.75" clip-path="url(#clipPath2)"/>
      <text x="602.9678" xml:space="preserve" y="666.4639" clip-path="url(#clipPath2)" font-family="sans-serif" stroke="none">geocode_back</text>
    </g>
    <g fill="rgb(238,255,204)" text-rendering="geometricPrecision" shape-rendering="geometricPrecision" transform="matrix(1,0,0,1,-362,-104)" stroke="rgb(238,255,204)">
      <rect x="597" width="90" height="30" y="766.75" clip-path="url(#clipPath2)" stroke="none"/>
    </g>
    <g text-rendering="geometricPrecision" stroke-miterlimit="1.45" shape-rendering="geometricPrecision" transform="matrix(1,0,0,1,-362,-104)" stroke-linecap="butt">
      <rect fill="none" x="597" width="90" height="30" y="766.75" clip-path="url(#clipPath2)"/>
      <text x="608.3086" xml:space="preserve" y="786.4639" clip-path="url(#clipPath2)" font-family="sans-serif" stroke="none">linear_to_dB</text>
    </g>
    <g fill="rgb(106,176,222)" text-rendering="geometricPrecision" shape-rendering="geometricPrecision" transform="matrix(1,0,0,1,-362,-104)" stroke="rgb(106,176,222)">
      <rect x="599.5" y="119.5" clip-path="url(#clipPath2)" width="85" rx="4" ry="4" height="30" stroke="none"/>
    </g>
    <g text-rendering="geometricPrecision" stroke-miterlimit="1.45" shape-rendering="geometricPrecision" transform="matrix(1,0,0,1,-362,-104)" stroke-linecap="butt">
      <rect x="599.5" y="119.5" clip-path="url(#clipPath2)" fill="none" width="85" rx="4" ry="4" height="30"/>
      <text x="619.6611" xml:space="preserve" y="139.2139" clip-path="url(#clipPath2)" font-family="sans-serif" stroke="none">S1 GRD</text>
    </g>
    <g fill="rgb(106,176,222)" text-rendering="geometricPrecision" shape-rendering="geometricPrecision" transform="matrix(1,0,0,1,-362,-104)" stroke="rgb(106,176,222)">
      <rect x="400.5" y="281.5" clip-path="url(#clipPath2)" width="85" rx="4" ry="4" height="30" stroke="none"/>
    </g>
    <g text-rendering="geometricPrecision" stroke-miterlimit="1.45" shape-rendering="geometricPrecision" transform="matrix(1,0,0,1,-362,-104)" stroke-linecap="butt">
      <rect x="400.5" y="281.5" clip-path="url(#clipPath2)" fill="none" width="85" rx="4" ry="4" height="30"/>
      <text x="429.667" xml:space="preserve" y="301.2139" clip-path="url(#clipPath2)" font-family="sans-serif" stroke="none">DEM</text>
    </g>
    <g fill="rgb(106,176,222)" text-rendering="geometricPrecision" shape-rendering="geometricPrecision" transform="matrix(1,0,0,1,-362,-104)" stroke="rgb(106,176,222)">
      <rect x="577.996" y="826.75" clip-path="url(#clipPath2)" width="129.032" rx="4" ry="4" height="30" stroke="none"/>
    </g>
    <g text-rendering="geometricPrecision" stroke-miterlimit="1.45" shape-rendering="geometricPrecision" transform="matrix(1,0,0,1,-362,-104)" stroke-linecap="butt">
      <rect x="577.996" y="826.75" clip-path="url(#clipPath2)" fill="none" width="129.032" rx="4" ry="4" height="30"/>
      <text x="586.4818" xml:space="preserve" y="846.4639" clip-path="url(#clipPath2)" font-family="sans-serif" stroke="none">gamma0-rtc_geo_dB</text>
    </g>
    <g fill="rgb(238,255,204)" text-rendering="geometricPrecision" shape-rendering="geometricPrecision" transform="matrix(1,0,0,1,-362,-104)" stroke="rgb(238,255,204)">
      <rect x="398" width="90" height="30" y="766.75" clip-path="url(#clipPath2)" stroke="none"/>
    </g>
    <g text-rendering="geometricPrecision" stroke-miterlimit="1.45" shape-rendering="geometricPrecision" transform="matrix(1,0,0,1,-362,-104)" stroke-linecap="butt">
      <rect fill="none" x="398" width="90" height="30" y="766.75" clip-path="url(#clipPath2)"/>
      <text x="403.9678" xml:space="preserve" y="786.4639" clip-path="url(#clipPath2)" font-family="sans-serif" stroke="none">geocode_back</text>
    </g>
    <g fill="rgb(106,176,222)" text-rendering="geometricPrecision" shape-rendering="geometricPrecision" transform="matrix(1,0,0,1,-362,-104)" stroke="rgb(106,176,222)">
      <rect x="400.5" y="826.75" clip-path="url(#clipPath2)" width="85" rx="4" ry="4" height="30" stroke="none"/>
    </g>
    <g text-rendering="geometricPrecision" stroke-miterlimit="1.45" shape-rendering="geometricPrecision" transform="matrix(1,0,0,1,-362,-104)" stroke-linecap="butt">
      <rect x="400.5" y="826.75" clip-path="url(#clipPath2)" fill="none" width="85" rx="4" ry="4" height="30"/>
      <text x="421.9824" xml:space="preserve" y="846.4639" clip-path="url(#clipPath2)" font-family="sans-serif" stroke="none">inc_geo</text>
    </g>
    <g fill="rgb(231,242,250)" text-rendering="geometricPrecision" shape-rendering="geometricPrecision" transform="matrix(1,0,0,1,-362,-104)" stroke="rgb(231,242,250)">
      <path d="M630 236.5 L657 236.5 L654 266.5 L627 266.5 Z" fill-rule="evenodd" clip-path="url(#clipPath2)" stroke="none"/>
    </g>
    <g text-rendering="geometricPrecision" stroke-miterlimit="1.45" shape-rendering="geometricPrecision" transform="matrix(1,0,0,1,-362,-104)" stroke-linecap="butt">
      <path fill="none" d="M630 236.5 L657 236.5 L654 266.5 L627 266.5 Z" fill-rule="evenodd" clip-path="url(#clipPath2)"/>
      <text x="634.3359" xml:space="preserve" y="256.2139" clip-path="url(#clipPath2)" font-family="sans-serif" stroke="none">mli</text>
    </g>
    <g fill="rgb(231,242,250)" text-rendering="geometricPrecision" shape-rendering="geometricPrecision" transform="matrix(1,0,0,1,-362,-104)" stroke="rgb(231,242,250)">
      <path d="M627.6 366 L660 366 L656.4 396 L624 396 Z" fill-rule="evenodd" clip-path="url(#clipPath2)" stroke="none"/>
    </g>
    <g text-rendering="geometricPrecision" stroke-miterlimit="1.45" shape-rendering="geometricPrecision" transform="matrix(1,0,0,1,-362,-104)" stroke-linecap="butt">
      <path fill="none" d="M627.6 366 L660 366 L656.4 396 L624 396 Z" fill-rule="evenodd" clip-path="url(#clipPath2)"/>
      <text x="630.999" xml:space="preserve" y="385.7139" clip-path="url(#clipPath2)" font-family="sans-serif" stroke="none">mli2</text>
    </g>
    <g fill="rgb(231,242,250)" text-rendering="geometricPrecision" shape-rendering="geometricPrecision" transform="matrix(1,0,0,1,-362,-104)" stroke="rgb(231,242,250)">
      <path d="M481.75 426 L508.75 426 L505.75 456 L478.75 456 Z" fill-rule="evenodd" clip-path="url(#clipPath2)" stroke="none"/>
    </g>
    <g text-rendering="geometricPrecision" stroke-miterlimit="1.45" shape-rendering="geometricPrecision" transform="matrix(1,0,0,1,-362,-104)" stroke-linecap="butt">
      <path fill="none" d="M481.75 426 L508.75 426 L505.75 456 L478.75 456 Z" fill-rule="evenodd" clip-path="url(#clipPath2)"/>
      <text x="482.0781" xml:space="preserve" y="445.7139" clip-path="url(#clipPath2)" font-family="sans-serif" stroke="none">dem</text>
    </g>
    <g fill="rgb(231,242,250)" text-rendering="geometricPrecision" shape-rendering="geometricPrecision" transform="matrix(1,0,0,1,-362,-104)" stroke="rgb(231,242,250)">
      <path d="M380.25 426 L407.25 426 L404.25 456 L377.25 456 Z" fill-rule="evenodd" clip-path="url(#clipPath2)" stroke="none"/>
    </g>
    <g text-rendering="geometricPrecision" stroke-miterlimit="1.45" shape-rendering="geometricPrecision" transform="matrix(1,0,0,1,-362,-104)" stroke-linecap="butt">
      <path fill="none" d="M380.25 426 L407.25 426 L404.25 456 L377.25 456 Z" fill-rule="evenodd" clip-path="url(#clipPath2)"/>
      <text x="384.5801" xml:space="preserve" y="445.7139" clip-path="url(#clipPath2)" font-family="sans-serif" stroke="none">inc</text>
    </g>
    <g fill="rgb(231,242,250)" text-rendering="geometricPrecision" shape-rendering="geometricPrecision" transform="matrix(1,0,0,1,-362,-104)" stroke="rgb(231,242,250)">
      <path d="M431 426 L458 426 L455 456 L428 456 Z" fill-rule="evenodd" clip-path="url(#clipPath2)" stroke="none"/>
    </g>
    <g text-rendering="geometricPrecision" stroke-miterlimit="1.45" shape-rendering="geometricPrecision" transform="matrix(1,0,0,1,-362,-104)" stroke-linecap="butt">
      <path fill="none" d="M431 426 L458 426 L455 456 L428 456 Z" fill-rule="evenodd" clip-path="url(#clipPath2)"/>
      <text x="436.6631" xml:space="preserve" y="445.7139" clip-path="url(#clipPath2)" font-family="sans-serif" stroke="none">lut</text>
    </g>
    <g fill="rgb(231,242,250)" text-rendering="geometricPrecision" shape-rendering="geometricPrecision" transform="matrix(1,0,0,1,-362,-104)" stroke="rgb(231,242,250)">
      <path d="M532.5 426 L559.5 426 L556.5 456 L529.5 456 Z" fill-rule="evenodd" clip-path="url(#clipPath2)" stroke="none"/>
    </g>
    <g text-rendering="geometricPrecision" stroke-miterlimit="1.45" shape-rendering="geometricPrecision" transform="matrix(1,0,0,1,-362,-104)" stroke-linecap="butt">
      <path fill="none" d="M532.5 426 L559.5 426 L556.5 456 L529.5 456 Z" fill-rule="evenodd" clip-path="url(#clipPath2)"/>
      <text x="540.167" xml:space="preserve" y="445.7139" clip-path="url(#clipPath2)" font-family="sans-serif" stroke="none">ls</text>
    </g>
    <g fill="rgb(231,242,250)" text-rendering="geometricPrecision" shape-rendering="geometricPrecision" transform="matrix(1,0,0,1,-362,-104)" stroke="rgb(231,242,250)">
      <path d="M602.368 573.75 L691.54 573.75 L681.632 603.75 L592.46 603.75 Z" fill-rule="evenodd" clip-path="url(#clipPath2)" stroke="none"/>
    </g>
    <g text-rendering="geometricPrecision" stroke-miterlimit="1.45" shape-rendering="geometricPrecision" transform="matrix(1,0,0,1,-362,-104)" stroke-linecap="butt">
      <path fill="none" d="M602.368 573.75 L691.54 573.75 L681.632 603.75 L592.46 603.75 Z" fill-rule="evenodd" clip-path="url(#clipPath2)"/>
      <text x="604.3125" xml:space="preserve" y="593.4639" clip-path="url(#clipPath2)" font-family="sans-serif" stroke="none">sig2gam_ratio</text>
    </g>
    <g fill="rgb(231,242,250)" text-rendering="geometricPrecision" shape-rendering="geometricPrecision" transform="matrix(1,0,0,1,-362,-104)" stroke="rgb(231,242,250)">
      <path d="M748.5 646.75 L829.5 646.75 L820.5 676.75 L739.5 676.75 Z" fill-rule="evenodd" clip-path="url(#clipPath2)" stroke="none"/>
    </g>
    <g text-rendering="geometricPrecision" stroke-miterlimit="1.45" shape-rendering="geometricPrecision" transform="matrix(1,0,0,1,-362,-104)" stroke-linecap="butt">
      <path fill="none" d="M748.5 646.75 L829.5 646.75 L820.5 676.75 L739.5 676.75 Z" fill-rule="evenodd" clip-path="url(#clipPath2)"/>
      <text x="752.4932" xml:space="preserve" y="666.4639" clip-path="url(#clipPath2)" font-family="sans-serif" stroke="none">gamma0-rtc</text>
    </g>
    <g fill="rgb(231,242,250)" text-rendering="geometricPrecision" shape-rendering="geometricPrecision" transform="matrix(1,0,0,1,-362,-104)" stroke="rgb(231,242,250)">
      <path d="M592.8448 706.75 L703.444 706.75 L691.1552 736.75 L580.556 736.75 Z" fill-rule="evenodd" clip-path="url(#clipPath2)" stroke="none"/>
    </g>
    <g text-rendering="geometricPrecision" stroke-miterlimit="1.45" shape-rendering="geometricPrecision" transform="matrix(1,0,0,1,-362,-104)" stroke-linecap="butt">
      <path fill="none" d="M592.8448 706.75 L703.444 706.75 L691.1552 736.75 L580.556 736.75 Z" fill-rule="evenodd" clip-path="url(#clipPath2)"/>
      <text x="596.6455" xml:space="preserve" y="726.4639" clip-path="url(#clipPath2)" font-family="sans-serif" stroke="none">gamma0-rtc_geo</text>
    </g>
    <g fill="rgb(106,176,222)" text-rendering="geometricPrecision" shape-rendering="geometricPrecision" transform="matrix(1,0,0,1,-362,-104)" stroke="rgb(106,176,222)">
      <rect x="714.5" y="119.5" clip-path="url(#clipPath2)" width="85" rx="4" ry="4" height="30" stroke="none"/>
    </g>
    <g text-rendering="geometricPrecision" stroke-miterlimit="1.45" shape-rendering="geometricPrecision" transform="matrix(1,0,0,1,-362,-104)" stroke-linecap="butt">
      <rect x="714.5" y="119.5" clip-path="url(#clipPath2)" fill="none" width="85" rx="4" ry="4" height="30"/>
      <text x="731.3271" xml:space="preserve" y="139.2139" clip-path="url(#clipPath2)" font-family="sans-serif" stroke="none">POEORB</text>
      <path fill="none" d="M642 149.4707 L642 171.5" clip-path="url(#clipPath2)"/>
      <path d="M642 179.5 L647 167.5 L642 170.5 L637 167.5 Z" clip-path="url(#clipPath2)" stroke="none"/>
      <path fill="none" d="M443 311.4773 L443 358" clip-path="url(#clipPath2)"/>
      <path d="M443 366 L448 354 L443 357 L438 354 Z" clip-path="url(#clipPath2)" stroke="none"/>
      <path fill="none" d="M642.128 796.75 L642.3159 818.765" clip-path="url(#clipPath2)"/>
      <path d="M642.3842 826.7646 L647.2816 814.7224 L642.3073 817.765 L637.2819 814.8078 Z" clip-path="url(#clipPath2)" stroke="none"/>
      <path fill="none" d="M443 796.75 L443 818.7646" clip-path="url(#clipPath2)"/>
      <path d="M443 826.7646 L448 814.7646 L443 817.7646 L438 814.7646 Z" clip-path="url(#clipPath2)" stroke="none"/>
      <path fill="none" d="M642 209.5 L642 228.5293" clip-path="url(#clipPath2)"/>
      <path d="M642 236.5293 L647 224.5293 L642 227.5293 L637 224.5293 Z" clip-path="url(#clipPath2)" stroke="none"/>
      <path fill="none" d="M712 251.5 L663.501 251.5" clip-path="url(#clipPath2)"/>
      <path d="M655.501 251.5 L667.501 256.5 L664.501 251.5 L667.501 246.5 Z" clip-path="url(#clipPath2)" stroke="none"/>
      <path fill="none" d="M642 266.481 L642 291.5" clip-path="url(#clipPath2)"/>
      <path d="M642 299.5 L647 287.5 L642 290.5 L637 287.5 Z" clip-path="url(#clipPath2)" stroke="none"/>
      <path fill="none" d="M642 329.5 L642 357.9875" clip-path="url(#clipPath2)"/>
      <path d="M642 365.9875 L647 353.9875 L642 356.9875 L637 353.9875 Z" clip-path="url(#clipPath2)" stroke="none"/>
      <path fill="none" d="M642 395.9698 L642 505.75" clip-path="url(#clipPath2)"/>
      <path d="M642 513.75 L647 501.75 L642 504.75 L637 501.75 Z" clip-path="url(#clipPath2)" stroke="none"/>
      <path fill="none" d="M625.8215 381 L496 381" clip-path="url(#clipPath2)"/>
      <path d="M488 381 L500 386 L497 381 L500 376 Z" clip-path="url(#clipPath2)" stroke="none"/>
      <path fill="none" d="M658.1774 381 L784.5 381 L784.5 565.75" clip-path="url(#clipPath2)"/>
      <path d="M784.5 573.75 L789.5 561.75 L784.5 564.75 L779.5 561.75 Z" clip-path="url(#clipPath2)" stroke="none"/>
      <path fill="none" d="M443 396 L443 410.4331 L493.75 410.4331 L493.75 417.9852" clip-path="url(#clipPath2)"/>
      <path d="M493.75 425.9852 L498.75 413.9852 L493.75 416.9852 L488.75 413.9852 Z" clip-path="url(#clipPath2)" stroke="none"/>
      <path fill="none" d="M506.5264 448.5624 L609.7737 509.6751" clip-path="url(#clipPath2)"/>
      <path d="M616.6581 513.75 L608.8784 503.3349 L608.9132 509.1657 L603.7847 511.9404 Z" clip-path="url(#clipPath2)" stroke="none"/>
      <path fill="none" d="M443 396 L443 410.4331 L392.25 410.4331 L392.25 417.9852" clip-path="url(#clipPath2)"/>
      <path d="M392.25 425.9852 L397.25 413.9852 L392.25 416.9852 L387.25 413.9852 Z" clip-path="url(#clipPath2)" stroke="none"/>
      <path fill="none" d="M392.25 456.0392 L392.25 528.75 L589 528.75" clip-path="url(#clipPath2)"/>
      <path d="M597 528.75 L585 523.75 L588 528.75 L585 533.75 Z" clip-path="url(#clipPath2)" stroke="none"/>
      <path fill="none" d="M392.25 456.016 L392.25 781.75 L398 781.75" clip-path="url(#clipPath2)"/>
      <path d="M398 781.75 L386 776.75 L389 781.75 L386 786.75 Z" clip-path="url(#clipPath2)" stroke="none"/>
      <path fill="none" d="M443 396 L443 410.4331 L443 410.4331 L443 417.9852" clip-path="url(#clipPath2)"/>
      <path d="M443 425.9852 L448 413.9852 L443 416.9852 L438 413.9852 Z" clip-path="url(#clipPath2)" stroke="none"/>
      <path fill="none" d="M455.9476 446.7093 L600.663 510.5222" clip-path="url(#clipPath2)"/>
      <path d="M607.9829 513.75 L599.0203 504.3334 L599.748 510.1188 L594.9857 513.4833 Z" clip-path="url(#clipPath2)" stroke="none"/>
      <path fill="none" d="M443 456.0095 L443 523.75 M443 533.75 L443 661.75 L589 661.75" clip-path="url(#clipPath2)"/>
      <path d="M597 661.75 L585 656.75 L588 661.75 L585 666.75 Z" clip-path="url(#clipPath2)" stroke="none"/>
      <path fill="none" d="M443 456.016 L443 523.75 M443 533.75 L443 758.75" clip-path="url(#clipPath2)"/>
      <path d="M443 766.75 L448 754.75 L443 757.75 L438 754.75 Z" clip-path="url(#clipPath2)" stroke="none"/>
      <path fill="none" d="M443 396 L443 410.4331 L544.5 410.4331 L544.5 417.9852" clip-path="url(#clipPath2)"/>
      <path d="M544.5 425.9852 L549.5 413.9852 L544.5 416.9852 L539.5 413.9852 Z" clip-path="url(#clipPath2)" stroke="none"/>
      <path fill="none" d="M556.9017 452.1616 L619.387 508.3983" clip-path="url(#clipPath2)"/>
      <path d="M625.3333 513.75 L619.7586 502.006 L618.6437 507.7293 L613.069 509.4389 Z" clip-path="url(#clipPath2)" stroke="none"/>
      <path fill="none" d="M642 543.75 L642 565.7646" clip-path="url(#clipPath2)"/>
      <path d="M642 573.7646 L647 561.7646 L642 564.7646 L637 561.7646 Z" clip-path="url(#clipPath2)" stroke="none"/>
      <path fill="none" d="M686.566 588.75 L731.5 588.75" clip-path="url(#clipPath2)"/>
      <path d="M739.5 588.75 L727.5 583.75 L730.5 588.75 L727.5 593.75 Z" clip-path="url(#clipPath2)" stroke="none"/>
      <path fill="none" d="M784.5 603.75 L784.5 638.7686" clip-path="url(#clipPath2)"/>
      <path d="M784.5 646.7686 L789.5 634.7686 L784.5 637.7686 L779.5 634.7686 Z" clip-path="url(#clipPath2)" stroke="none"/>
      <path fill="none" d="M743.9696 661.75 L695 661.75" clip-path="url(#clipPath2)"/>
      <path d="M687 661.75 L699 666.75 L696 661.75 L699 656.75 Z" clip-path="url(#clipPath2)" stroke="none"/>
      <path fill="none" d="M642 676.7793 L642 698.7744" clip-path="url(#clipPath2)"/>
      <path d="M642 706.7744 L647 694.7744 L642 697.7744 L637 694.7744 Z" clip-path="url(#clipPath2)" stroke="none"/>
      <path fill="none" d="M642 736.7207 L642 758.75" clip-path="url(#clipPath2)"/>
      <path d="M642 766.75 L647 754.75 L642 757.75 L637 754.75 Z" clip-path="url(#clipPath2)" stroke="none"/>
      <path fill="none" d="M757 149.4963 L757 228.5" clip-path="url(#clipPath2)"/>
      <path d="M757 236.5 L762 224.5 L757 227.5 L752 224.5 Z" clip-path="url(#clipPath2)" stroke="none"/>
    </g>
  </g>
</svg>
