<?xml version="1.0" encoding="UTF-8"?><svg xmlns="http://www.w3.org/2000/svg" xmlns:xlink="http://www.w3.org/1999/xlink" fill-opacity="1" color-rendering="auto" color-interpolation="auto" text-rendering="auto" stroke="black" stroke-linecap="square" width="384" stroke-miterlimit="10" shape-rendering="auto" stroke-opacity="1" fill="black" stroke-dasharray="none" font-weight="normal" stroke-width="1" height="761" font-family="'Dialog'" font-style="normal" stroke-linejoin="miter" font-size="12px" stroke-dashoffset="0" image-rendering="auto">
  <!--Generated by ySVG 2.5-->
  <defs id="genericDefs"/>
  <g>
    <defs id="defs1">
      <clipPath clipPathUnits="userSpaceOnUse" id="clipPath1">
        <path d="M0 0 L384 0 L384 761 L0 761 L0 0 Z"/>
      </clipPath>
      <clipPath clipPathUnits="userSpaceOnUse" id="clipPath2">
        <path d="M325 89 L709 89 L709 850 L325 850 L325 89 Z"/>
      </clipPath>
    </defs>
    <g fill="white" text-rendering="geometricPrecision" shape-rendering="geometricPrecision" transform="translate(-325,-89)" stroke="white">
      <rect x="325" width="384" height="761" y="89" clip-path="url(#clipPath2)" stroke="none"/>
    </g>
    <g fill="rgb(106,176,222)" text-rendering="geometricPrecision" shape-rendering="geometricPrecision" transform="matrix(1,0,0,1,-325,-89)" stroke="rgb(106,176,222)">
      <rect x="454" y="104.5" clip-path="url(#clipPath2)" width="85" rx="4" ry="4" height="30" stroke="none"/>
    </g>
    <g text-rendering="geometricPrecision" stroke-miterlimit="1.45" shape-rendering="geometricPrecision" transform="matrix(1,0,0,1,-325,-89)" stroke-linecap="butt">
      <rect x="454" y="104.5" clip-path="url(#clipPath2)" fill="none" width="85" rx="4" ry="4" height="30"/>
      <text x="474.1611" xml:space="preserve" y="124.2139" clip-path="url(#clipPath2)" font-family="sans-serif" stroke="none">S1 GRD</text>
    </g>
    <g fill="rgb(238,255,204)" text-rendering="geometricPrecision" shape-rendering="geometricPrecision" transform="matrix(1,0,0,1,-325,-89)" stroke="rgb(238,255,204)">
      <rect x="431" width="131" height="30" y="224.5" clip-path="url(#clipPath2)" stroke="none"/>
    </g>
    <g text-rendering="geometricPrecision" stroke-miterlimit="1.45" shape-rendering="geometricPrecision" transform="matrix(1,0,0,1,-325,-89)" stroke-linecap="butt">
      <rect fill="none" x="431" width="131" height="30" y="224.5" clip-path="url(#clipPath2)"/>
      <text x="435.4805" xml:space="preserve" y="244.2139" clip-path="url(#clipPath2)" font-family="sans-serif" stroke="none">ThermalNoiseRemoval</text>
    </g>
    <g fill="rgb(238,255,204)" text-rendering="geometricPrecision" shape-rendering="geometricPrecision" transform="matrix(1,0,0,1,-325,-89)" stroke="rgb(238,255,204)">
      <rect x="416.25" width="160.5" height="30" y="284.5" clip-path="url(#clipPath2)" stroke="none"/>
    </g>
    <g text-rendering="geometricPrecision" stroke-miterlimit="1.45" shape-rendering="geometricPrecision" transform="matrix(1,0,0,1,-325,-89)" stroke-linecap="butt">
      <rect fill="none" x="416.25" width="160.5" height="30" y="284.5" clip-path="url(#clipPath2)"/>
      <text x="421.4824" xml:space="preserve" y="304.2139" clip-path="url(#clipPath2)" font-family="sans-serif" stroke="none">Remove-GRD-Border-Noise</text>
    </g>
    <g fill="rgb(238,255,204)" text-rendering="geometricPrecision" shape-rendering="geometricPrecision" transform="matrix(1,0,0,1,-325,-89)" stroke="rgb(238,255,204)">
      <rect x="451.5" width="90" height="30" y="344.5" clip-path="url(#clipPath2)" stroke="none"/>
    </g>
    <g text-rendering="geometricPrecision" stroke-miterlimit="1.45" shape-rendering="geometricPrecision" transform="matrix(1,0,0,1,-325,-89)" stroke-linecap="butt">
      <rect fill="none" x="451.5" width="90" height="30" y="344.5" clip-path="url(#clipPath2)"/>
      <text x="454.8252" xml:space="preserve" y="364.2139" clip-path="url(#clipPath2)" font-family="sans-serif" stroke="none">Apply-Orbit-File</text>
    </g>
    <g fill="rgb(238,255,204)" text-rendering="geometricPrecision" shape-rendering="geometricPrecision" transform="matrix(1,0,0,1,-325,-89)" stroke="rgb(238,255,204)">
      <rect x="451.5" width="90" height="30" y="404.5" clip-path="url(#clipPath2)" stroke="none"/>
    </g>
    <g text-rendering="geometricPrecision" stroke-miterlimit="1.45" shape-rendering="geometricPrecision" transform="matrix(1,0,0,1,-325,-89)" stroke-linecap="butt">
      <rect fill="none" x="451.5" width="90" height="30" y="404.5" clip-path="url(#clipPath2)"/>
      <text x="467.8184" xml:space="preserve" y="424.2139" clip-path="url(#clipPath2)" font-family="sans-serif" stroke="none">Calibration</text>
    </g>
    <g fill="rgb(238,255,204)" text-rendering="geometricPrecision" shape-rendering="geometricPrecision" transform="matrix(1,0,0,1,-325,-89)" stroke="rgb(238,255,204)">
      <rect x="451.5" width="90" height="30" y="471" clip-path="url(#clipPath2)" stroke="none"/>
    </g>
    <g text-rendering="geometricPrecision" stroke-miterlimit="1.45" shape-rendering="geometricPrecision" transform="matrix(1,0,0,1,-325,-89)" stroke-linecap="butt">
      <rect fill="none" x="451.5" width="90" height="30" y="471" clip-path="url(#clipPath2)"/>
      <text x="472.8252" xml:space="preserve" y="490.7139" clip-path="url(#clipPath2)" font-family="sans-serif" stroke="none">Multilook</text>
    </g>
    <g fill="rgb(238,255,204)" text-rendering="geometricPrecision" shape-rendering="geometricPrecision" transform="matrix(1,0,0,1,-325,-89)" stroke="rgb(238,255,204)">
      <rect x="443.12" width="106.76" height="30" y="531" clip-path="url(#clipPath2)" stroke="none"/>
    </g>
    <g text-rendering="geometricPrecision" stroke-miterlimit="1.45" shape-rendering="geometricPrecision" transform="matrix(1,0,0,1,-325,-89)" stroke-linecap="butt">
      <rect fill="none" x="443.12" width="106.76" height="30" y="531" clip-path="url(#clipPath2)"/>
      <text x="449.1475" xml:space="preserve" y="550.7139" clip-path="url(#clipPath2)" font-family="sans-serif" stroke="none">Terrain-Flattening</text>
    </g>
    <g fill="rgb(238,255,204)" text-rendering="geometricPrecision" shape-rendering="geometricPrecision" transform="matrix(1,0,0,1,-325,-89)" stroke="rgb(238,255,204)">
      <rect x="443.12" width="106.76" height="30" y="591" clip-path="url(#clipPath2)" stroke="none"/>
    </g>
    <g text-rendering="geometricPrecision" stroke-miterlimit="1.45" shape-rendering="geometricPrecision" transform="matrix(1,0,0,1,-325,-89)" stroke-linecap="butt">
      <rect fill="none" x="443.12" width="106.76" height="30" y="591" clip-path="url(#clipPath2)"/>
      <text x="447.8203" xml:space="preserve" y="610.7139" clip-path="url(#clipPath2)" font-family="sans-serif" stroke="none">Terrain-Correction</text>
    </g>
    <g fill="rgb(238,255,204)" text-rendering="geometricPrecision" shape-rendering="geometricPrecision" transform="matrix(1,0,0,1,-325,-89)" stroke="rgb(238,255,204)">
      <rect x="549.81" width="98.38" height="30" y="662" clip-path="url(#clipPath2)" stroke="none"/>
    </g>
    <g text-rendering="geometricPrecision" stroke-miterlimit="1.45" shape-rendering="geometricPrecision" transform="matrix(1,0,0,1,-325,-89)" stroke-linecap="butt">
      <rect fill="none" x="549.81" width="98.38" height="30" y="662" clip-path="url(#clipPath2)"/>
      <text x="553.9824" xml:space="preserve" y="681.7139" clip-path="url(#clipPath2)" font-family="sans-serif" stroke="none">LinearToFromdB</text>
    </g>
    <g fill="rgb(238,255,204)" text-rendering="geometricPrecision" shape-rendering="geometricPrecision" transform="matrix(1,0,0,1,-325,-89)" stroke="rgb(238,255,204)">
      <rect x="376.24" width="90" height="30" y="662" clip-path="url(#clipPath2)" stroke="none"/>
    </g>
    <g text-rendering="geometricPrecision" stroke-miterlimit="1.45" shape-rendering="geometricPrecision" transform="matrix(1,0,0,1,-325,-89)" stroke-linecap="butt">
      <rect fill="none" x="376.24" width="90" height="30" y="662" clip-path="url(#clipPath2)"/>
      <text x="407.2419" xml:space="preserve" y="681.7139" clip-path="url(#clipPath2)" font-family="sans-serif" stroke="none">Write</text>
    </g>
    <g fill="rgb(238,255,204)" text-rendering="geometricPrecision" shape-rendering="geometricPrecision" transform="matrix(1,0,0,1,-325,-89)" stroke="rgb(238,255,204)">
      <rect x="554" width="90" height="30" y="733" clip-path="url(#clipPath2)" stroke="none"/>
    </g>
    <g text-rendering="geometricPrecision" stroke-miterlimit="1.45" shape-rendering="geometricPrecision" transform="matrix(1,0,0,1,-325,-89)" stroke-linecap="butt">
      <rect fill="none" x="554" width="90" height="30" y="733" clip-path="url(#clipPath2)"/>
      <text x="576.002" xml:space="preserve" y="752.7139" clip-path="url(#clipPath2)" font-family="sans-serif" stroke="none">Write (2)</text>
    </g>
    <g fill="rgb(106,176,222)" text-rendering="geometricPrecision" shape-rendering="geometricPrecision" transform="matrix(1,0,0,1,-325,-89)" stroke="rgb(106,176,222)">
      <rect x="589.5" y="344.5" clip-path="url(#clipPath2)" width="85" rx="4" ry="4" height="30" stroke="none"/>
    </g>
    <g text-rendering="geometricPrecision" stroke-miterlimit="1.45" shape-rendering="geometricPrecision" transform="matrix(1,0,0,1,-325,-89)" stroke-linecap="butt">
      <rect x="589.5" y="344.5" clip-path="url(#clipPath2)" fill="none" width="85" rx="4" ry="4" height="30"/>
      <text x="606.3271" xml:space="preserve" y="364.2139" clip-path="url(#clipPath2)" font-family="sans-serif" stroke="none">POEORB</text>
    </g>
    <g fill="rgb(106,176,222)" text-rendering="geometricPrecision" shape-rendering="geometricPrecision" transform="matrix(1,0,0,1,-325,-89)" stroke="rgb(106,176,222)">
      <rect x="589.5" y="531" clip-path="url(#clipPath2)" width="85" rx="4" ry="4" height="30" stroke="none"/>
    </g>
    <g text-rendering="geometricPrecision" stroke-miterlimit="1.45" shape-rendering="geometricPrecision" transform="matrix(1,0,0,1,-325,-89)" stroke-linecap="butt">
      <rect x="589.5" y="531" clip-path="url(#clipPath2)" fill="none" width="85" rx="4" ry="4" height="30"/>
      <text x="618.667" xml:space="preserve" y="550.7139" clip-path="url(#clipPath2)" font-family="sans-serif" stroke="none">DEM</text>
    </g>
    <g fill="rgb(106,176,222)" text-rendering="geometricPrecision" shape-rendering="geometricPrecision" transform="matrix(1,0,0,1,-325,-89)" stroke="rgb(106,176,222)">
      <rect x="504.62" y="804" clip-path="url(#clipPath2)" width="188.76" rx="4" ry="4" height="30" stroke="none"/>
    </g>
    <g text-rendering="geometricPrecision" stroke-miterlimit="1.45" shape-rendering="geometricPrecision" transform="matrix(1,0,0,1,-325,-89)" stroke-linecap="butt">
      <rect x="504.62" y="804" clip-path="url(#clipPath2)" fill="none" width="188.76" rx="4" ry="4" height="30"/>
      <text x="509.9609" xml:space="preserve" y="823.7139" clip-path="url(#clipPath2)" font-family="sans-serif" stroke="none">tnr_bnr_Orb_Cal_ML_TF_TC_dB</text>
    </g>
    <g fill="rgb(106,176,222)" text-rendering="geometricPrecision" shape-rendering="geometricPrecision" transform="matrix(1,0,0,1,-325,-89)" stroke="rgb(106,176,222)">
      <rect x="363.36" y="733" clip-path="url(#clipPath2)" width="115.76" rx="4" ry="4" height="30" stroke="none"/>
    </g>
    <g text-rendering="geometricPrecision" stroke-miterlimit="1.45" shape-rendering="geometricPrecision" transform="matrix(1,0,0,1,-325,-89)" stroke-linecap="butt">
      <rect x="363.36" y="733" clip-path="url(#clipPath2)" fill="none" width="115.76" rx="4" ry="4" height="30"/>
      <text x="367.8699" xml:space="preserve" y="752.7139" clip-path="url(#clipPath2)" font-family="sans-serif" stroke="none">localIncidenceAngle</text>
    </g>
    <g fill="rgb(106,176,222)" text-rendering="geometricPrecision" shape-rendering="geometricPrecision" transform="matrix(1,0,0,1,-325,-89)" stroke="rgb(106,176,222)">
      <rect x="367.86" y="804" clip-path="url(#clipPath2)" width="106.76" rx="4" ry="4" height="30" stroke="none"/>
    </g>
    <g text-rendering="geometricPrecision" stroke-miterlimit="1.45" shape-rendering="geometricPrecision" transform="matrix(1,0,0,1,-325,-89)" stroke-linecap="butt">
      <rect x="367.86" y="804" clip-path="url(#clipPath2)" fill="none" width="106.76" rx="4" ry="4" height="30"/>
      <text x="416.239" xml:space="preserve" y="823.7139" clip-path="url(#clipPath2)" font-family="sans-serif" stroke="none">...</text>
    </g>
    <g fill="rgb(238,255,204)" text-rendering="geometricPrecision" shape-rendering="geometricPrecision" transform="matrix(1,0,0,1,-325,-89)" stroke="rgb(238,255,204)">
      <rect x="451.5" width="90" height="30" y="164.5" clip-path="url(#clipPath2)" stroke="none"/>
    </g>
    <g text-rendering="geometricPrecision" stroke-miterlimit="1.45" shape-rendering="geometricPrecision" transform="matrix(1,0,0,1,-325,-89)" stroke-linecap="butt">
      <rect fill="none" x="451.5" width="90" height="30" y="164.5" clip-path="url(#clipPath2)"/>
      <text x="482.1562" xml:space="preserve" y="184.2139" clip-path="url(#clipPath2)" font-family="sans-serif" stroke="none">Read</text>
      <path fill="none" d="M496.5 254.5 L496.5 276.5" clip-path="url(#clipPath2)"/>
      <path d="M496.5 284.5 L501.5 272.5 L496.5 275.5 L491.5 272.5 Z" clip-path="url(#clipPath2)" stroke="none"/>
      <path fill="none" d="M496.5 314.5 L496.5 336.5" clip-path="url(#clipPath2)"/>
      <path d="M496.5 344.5 L501.5 332.5 L496.5 335.5 L491.5 332.5 Z" clip-path="url(#clipPath2)" stroke="none"/>
      <path fill="none" d="M496.5 374.5 L496.5 396.5" clip-path="url(#clipPath2)"/>
      <path d="M496.5 404.5 L501.5 392.5 L496.5 395.5 L491.5 392.5 Z" clip-path="url(#clipPath2)" stroke="none"/>
      <path fill="none" d="M496.5 434.5 L496.5 463" clip-path="url(#clipPath2)"/>
      <path d="M496.5 471 L501.5 459 L496.5 462 L491.5 459 Z" clip-path="url(#clipPath2)" stroke="none"/>
      <path fill="none" d="M496.5 501 L496.5 523" clip-path="url(#clipPath2)"/>
      <path d="M496.5 531 L501.5 519 L496.5 522 L491.5 519 Z" clip-path="url(#clipPath2)" stroke="none"/>
      <path fill="none" d="M496.5 561 L496.5 583" clip-path="url(#clipPath2)"/>
      <path d="M496.5 591 L501.5 579 L496.5 582 L491.5 579 Z" clip-path="url(#clipPath2)" stroke="none"/>
      <path fill="none" d="M496.5 621 L496.5 677 L541.81 677" clip-path="url(#clipPath2)"/>
      <path d="M549.81 677 L537.81 672 L540.81 677 L537.81 682 Z" clip-path="url(#clipPath2)" stroke="none"/>
      <path fill="none" d="M496.5 621 L496.5 677 L474.2656 677" clip-path="url(#clipPath2)"/>
      <path d="M466.2656 677 L478.2656 682 L475.2656 677 L478.2656 672 Z" clip-path="url(#clipPath2)" stroke="none"/>
      <path fill="none" d="M599 692 L599 725" clip-path="url(#clipPath2)"/>
      <path d="M599 733 L604 721 L599 724 L594 721 Z" clip-path="url(#clipPath2)" stroke="none"/>
      <path fill="none" d="M589.4908 359.5 L549.5 359.5" clip-path="url(#clipPath2)"/>
      <path d="M541.5 359.5 L553.5 364.5 L550.5 359.5 L553.5 354.5 Z" clip-path="url(#clipPath2)" stroke="none"/>
      <path fill="none" d="M589.4908 546 L557.88 546" clip-path="url(#clipPath2)"/>
      <path d="M549.88 546 L561.88 551 L558.88 546 L561.88 541 Z" clip-path="url(#clipPath2)" stroke="none"/>
      <path fill="none" d="M632 560.9707 L632 606 L557.88 606" clip-path="url(#clipPath2)"/>
      <path d="M549.88 606 L561.88 611 L558.88 606 L561.88 601 Z" clip-path="url(#clipPath2)" stroke="none"/>
      <path fill="none" d="M599 763 L599 795.9883" clip-path="url(#clipPath2)"/>
      <path d="M599 803.9883 L604 791.9883 L599 794.9883 L594 791.9883 Z" clip-path="url(#clipPath2)" stroke="none"/>
      <path fill="none" d="M376.24 677 L340.452 677 L340.452 748 L355.3708 748" clip-path="url(#clipPath2)"/>
      <path d="M363.3708 748 L351.3708 743 L354.3708 748 L351.3708 753 Z" clip-path="url(#clipPath2)" stroke="none"/>
      <path fill="none" d="M376.24 677 L340.452 677 L340.452 819 L359.8679 819" clip-path="url(#clipPath2)"/>
      <path d="M367.8679 819 L355.8679 814 L358.8679 819 L355.8679 824 Z" clip-path="url(#clipPath2)" stroke="none"/>
      <path fill="none" d="M496.5 134.4707 L496.5 156.5" clip-path="url(#clipPath2)"/>
      <path d="M496.5 164.5 L501.5 152.5 L496.5 155.5 L491.5 152.5 Z" clip-path="url(#clipPath2)" stroke="none"/>
      <path fill="none" d="M496.5 194.5 L496.5 216.5" clip-path="url(#clipPath2)"/>
      <path d="M496.5 224.5 L501.5 212.5 L496.5 215.5 L491.5 212.5 Z" clip-path="url(#clipPath2)" stroke="none"/>
    </g>
  </g>
</svg>
