<?xml version="1.0" encoding="UTF-8"?><svg xmlns="http://www.w3.org/2000/svg" xmlns:xlink="http://www.w3.org/1999/xlink" fill-opacity="1" color-rendering="auto" color-interpolation="auto" text-rendering="auto" stroke="black" stroke-linecap="square" width="639" stroke-miterlimit="10" shape-rendering="auto" stroke-opacity="1" fill="black" stroke-dasharray="none" font-weight="normal" stroke-width="1" height="971" font-family="'Dialog'" font-style="normal" stroke-linejoin="miter" font-size="12px" stroke-dashoffset="0" image-rendering="auto">
  <!--Generated by ySVG 2.5-->
  <defs id="genericDefs"/>
  <g>
    <defs id="defs1">
      <clipPath clipPathUnits="userSpaceOnUse" id="clipPath1">
        <path d="M0 0 L639 0 L639 971 L0 971 L0 0 Z"/>
      </clipPath>
      <clipPath clipPathUnits="userSpaceOnUse" id="clipPath2">
        <path d="M152 68 L791 68 L791 1039 L152 1039 L152 68 Z"/>
      </clipPath>
    </defs>
    <g fill="white" text-rendering="geometricPrecision" shape-rendering="geometricPrecision" transform="translate(-152,-68)" stroke="white">
      <rect x="152" width="639" height="971" y="68" clip-path="url(#clipPath2)" stroke="none"/>
    </g>
    <g fill="rgb(106,176,222)" text-rendering="geometricPrecision" shape-rendering="geometricPrecision" transform="matrix(1,0,0,1,-152,-68)" stroke="rgb(106,176,222)">
      <rect x="451.528" y="120.628" clip-path="url(#clipPath2)" width="85" rx="4" ry="4" height="30" stroke="none"/>
    </g>
    <g text-rendering="geometricPrecision" stroke-miterlimit="1.45" shape-rendering="geometricPrecision" transform="matrix(1,0,0,1,-152,-68)" stroke-linecap="butt">
      <rect x="451.528" y="120.628" clip-path="url(#clipPath2)" fill="none" width="85" rx="4" ry="4" height="30"/>
      <text x="471.6891" xml:space="preserve" y="140.3419" clip-path="url(#clipPath2)" font-family="sans-serif" stroke="none">S1 GRD</text>
    </g>
    <g fill="rgb(238,255,204)" text-rendering="geometricPrecision" shape-rendering="geometricPrecision" transform="matrix(1,0,0,1,-152,-68)" stroke="rgb(238,255,204)">
      <rect x="428.528" width="131" height="30" y="240.628" clip-path="url(#clipPath2)" stroke="none"/>
    </g>
    <g text-rendering="geometricPrecision" stroke-miterlimit="1.45" stroke-dasharray="6,2" shape-rendering="geometricPrecision" transform="matrix(1,0,0,1,-152,-68)" stroke-linecap="butt">
      <rect fill="none" x="428.528" width="131" height="30" y="240.628" clip-path="url(#clipPath2)"/>
      <text x="433.0085" y="260.3419" clip-path="url(#clipPath2)" font-family="sans-serif" stroke-dasharray="none" stroke="none" xml:space="preserve">ThermalNoiseRemoval</text>
    </g>
    <g fill="rgb(238,255,204)" text-rendering="geometricPrecision" shape-rendering="geometricPrecision" transform="matrix(1,0,0,1,-152,-68)" stroke="rgb(238,255,204)">
      <rect x="413.778" width="160.5" height="30" y="308.628" clip-path="url(#clipPath2)" stroke="none"/>
    </g>
    <g text-rendering="geometricPrecision" stroke-miterlimit="1.45" stroke-dasharray="6,2" shape-rendering="geometricPrecision" transform="matrix(1,0,0,1,-152,-68)" stroke-linecap="butt">
      <rect fill="none" x="413.778" width="160.5" height="30" y="308.628" clip-path="url(#clipPath2)"/>
      <text x="419.0104" y="328.3419" clip-path="url(#clipPath2)" font-family="sans-serif" stroke-dasharray="none" stroke="none" xml:space="preserve">Remove-GRD-Border-Noise</text>
    </g>
    <g fill="rgb(238,255,204)" text-rendering="geometricPrecision" shape-rendering="geometricPrecision" transform="matrix(1,0,0,1,-152,-68)" stroke="rgb(238,255,204)">
      <rect x="449.028" width="90" height="30" y="376.628" clip-path="url(#clipPath2)" stroke="none"/>
    </g>
    <g text-rendering="geometricPrecision" stroke-miterlimit="1.45" shape-rendering="geometricPrecision" transform="matrix(1,0,0,1,-152,-68)" stroke-linecap="butt">
      <rect fill="none" x="449.028" width="90" height="30" y="376.628" clip-path="url(#clipPath2)"/>
      <text x="452.3532" xml:space="preserve" y="396.3419" clip-path="url(#clipPath2)" font-family="sans-serif" stroke="none">Apply-Orbit-File</text>
    </g>
    <g fill="rgb(238,255,204)" text-rendering="geometricPrecision" shape-rendering="geometricPrecision" transform="matrix(1,0,0,1,-152,-68)" stroke="rgb(238,255,204)">
      <rect x="449.028" width="90" height="30" y="491.628" clip-path="url(#clipPath2)" stroke="none"/>
    </g>
    <g text-rendering="geometricPrecision" stroke-miterlimit="1.45" shape-rendering="geometricPrecision" transform="matrix(1,0,0,1,-152,-68)" stroke-linecap="butt">
      <rect fill="none" x="449.028" width="90" height="30" y="491.628" clip-path="url(#clipPath2)"/>
      <text x="465.3464" xml:space="preserve" y="511.3419" clip-path="url(#clipPath2)" font-family="sans-serif" stroke="none">Calibration</text>
    </g>
    <g fill="rgb(238,255,204)" text-rendering="geometricPrecision" shape-rendering="geometricPrecision" transform="matrix(1,0,0,1,-152,-68)" stroke="rgb(238,255,204)">
      <rect x="449.028" width="90" height="30" y="558.128" clip-path="url(#clipPath2)" stroke="none"/>
    </g>
    <g text-rendering="geometricPrecision" stroke-miterlimit="1.45" shape-rendering="geometricPrecision" transform="matrix(1,0,0,1,-152,-68)" stroke-linecap="butt">
      <rect fill="none" x="449.028" width="90" height="30" y="558.128" clip-path="url(#clipPath2)"/>
      <text x="470.3532" xml:space="preserve" y="577.8419" clip-path="url(#clipPath2)" font-family="sans-serif" stroke="none">Multilook</text>
    </g>
    <g fill="rgb(238,255,204)" text-rendering="geometricPrecision" shape-rendering="geometricPrecision" transform="matrix(1,0,0,1,-152,-68)" stroke="rgb(238,255,204)">
      <rect x="440.648" width="106.76" height="30" y="618.128" clip-path="url(#clipPath2)" stroke="none"/>
    </g>
    <g text-rendering="geometricPrecision" stroke-miterlimit="1.45" stroke-dasharray="6,2" shape-rendering="geometricPrecision" transform="matrix(1,0,0,1,-152,-68)" stroke-linecap="butt">
      <rect fill="none" x="440.648" width="106.76" height="30" y="618.128" clip-path="url(#clipPath2)"/>
      <text x="446.6755" y="637.8419" clip-path="url(#clipPath2)" font-family="sans-serif" stroke-dasharray="none" stroke="none" xml:space="preserve">Terrain-Flattening</text>
    </g>
    <g fill="rgb(238,255,204)" text-rendering="geometricPrecision" shape-rendering="geometricPrecision" transform="matrix(1,0,0,1,-152,-68)" stroke="rgb(238,255,204)">
      <rect x="440.648" width="106.76" height="30" y="768.128" clip-path="url(#clipPath2)" stroke="none"/>
    </g>
    <g text-rendering="geometricPrecision" stroke-miterlimit="1.45" shape-rendering="geometricPrecision" transform="matrix(1,0,0,1,-152,-68)" stroke-linecap="butt">
      <rect fill="none" x="440.648" width="106.76" height="30" y="768.128" clip-path="url(#clipPath2)"/>
      <text x="445.3483" xml:space="preserve" y="787.8419" clip-path="url(#clipPath2)" font-family="sans-serif" stroke="none">Terrain-Correction</text>
    </g>
    <g fill="rgb(106,176,222)" text-rendering="geometricPrecision" shape-rendering="geometricPrecision" transform="matrix(1,0,0,1,-152,-68)" stroke="rgb(106,176,222)">
      <rect x="587.028" y="376.628" clip-path="url(#clipPath2)" width="120" rx="4" ry="4" height="30" stroke="none"/>
    </g>
    <g text-rendering="geometricPrecision" stroke-miterlimit="1.45" shape-rendering="geometricPrecision" transform="matrix(1,0,0,1,-152,-68)" stroke-linecap="butt">
      <rect x="587.028" y="376.628" clip-path="url(#clipPath2)" fill="none" width="120" rx="4" ry="4" height="30"/>
      <text x="591.0153" xml:space="preserve" y="396.3419" clip-path="url(#clipPath2)" font-family="sans-serif" stroke="none">RESORB / POEORB</text>
    </g>
    <g fill="rgb(106,176,222)" text-rendering="geometricPrecision" shape-rendering="geometricPrecision" transform="matrix(1,0,0,1,-152,-68)" stroke="rgb(106,176,222)">
      <rect x="587.028" y="618.128" clip-path="url(#clipPath2)" width="85" rx="4" ry="4" height="30" stroke="none"/>
    </g>
    <g text-rendering="geometricPrecision" stroke-miterlimit="1.45" shape-rendering="geometricPrecision" transform="matrix(1,0,0,1,-152,-68)" stroke-linecap="butt">
      <rect x="587.028" y="618.128" clip-path="url(#clipPath2)" fill="none" width="85" rx="4" ry="4" height="30"/>
      <text x="616.195" xml:space="preserve" y="637.8419" clip-path="url(#clipPath2)" font-family="sans-serif" stroke="none">DEM</text>
    </g>
    <g fill="rgb(238,255,204)" text-rendering="geometricPrecision" shape-rendering="geometricPrecision" transform="matrix(1,0,0,1,-152,-68)" stroke="rgb(238,255,204)">
      <rect x="449.028" width="90" height="30" y="180.628" clip-path="url(#clipPath2)" stroke="none"/>
    </g>
    <g text-rendering="geometricPrecision" stroke-miterlimit="1.45" shape-rendering="geometricPrecision" transform="matrix(1,0,0,1,-152,-68)" stroke-linecap="butt">
      <rect fill="none" x="449.028" width="90" height="30" y="180.628" clip-path="url(#clipPath2)"/>
      <text x="479.6843" xml:space="preserve" y="200.3419" clip-path="url(#clipPath2)" font-family="sans-serif" stroke="none">Read</text>
    </g>
    <g fill="rgb(238,255,204)" text-rendering="geometricPrecision" shape-rendering="geometricPrecision" transform="matrix(1,0,0,1,-152,-68)" stroke="rgb(238,255,204)">
      <rect x="261.084" width="105.432" height="30" y="308.628" clip-path="url(#clipPath2)" stroke="none"/>
    </g>
    <g text-rendering="geometricPrecision" stroke-miterlimit="1.45" shape-rendering="geometricPrecision" transform="matrix(1,0,0,1,-152,-68)" stroke-linecap="butt">
      <rect fill="none" x="261.084" width="105.432" height="30" y="308.628" clip-path="url(#clipPath2)"/>
      <text x="266.1223" xml:space="preserve" y="328.3419" clip-path="url(#clipPath2)" font-family="sans-serif" stroke="none">TOPSAR-Deburst</text>
    </g>
    <g fill="rgb(106,176,222)" text-rendering="geometricPrecision" shape-rendering="geometricPrecision" transform="matrix(1,0,0,1,-152,-68)" stroke="rgb(106,176,222)">
      <rect x="271.3" y="120.628" clip-path="url(#clipPath2)" width="85" rx="4" ry="4" height="30" stroke="none"/>
    </g>
    <g text-rendering="geometricPrecision" stroke-miterlimit="1.45" shape-rendering="geometricPrecision" transform="matrix(1,0,0,1,-152,-68)" stroke-linecap="butt">
      <rect x="271.3" y="120.628" clip-path="url(#clipPath2)" fill="none" width="85" rx="4" ry="4" height="30"/>
      <text x="293.1223" xml:space="preserve" y="140.3419" clip-path="url(#clipPath2)" font-family="sans-serif" stroke="none">S1 SLC</text>
    </g>
    <g fill="rgb(238,255,204)" text-rendering="geometricPrecision" shape-rendering="geometricPrecision" transform="matrix(1,0,0,1,-152,-68)" stroke="rgb(238,255,204)">
      <rect x="248.3" width="131" height="30" y="240.628" clip-path="url(#clipPath2)" stroke="none"/>
    </g>
    <g text-rendering="geometricPrecision" stroke-miterlimit="1.45" stroke-dasharray="6,2" shape-rendering="geometricPrecision" transform="matrix(1,0,0,1,-152,-68)" stroke-linecap="butt">
      <rect fill="none" x="248.3" width="131" height="30" y="240.628" clip-path="url(#clipPath2)"/>
      <text x="252.7805" y="260.3419" clip-path="url(#clipPath2)" font-family="sans-serif" stroke-dasharray="none" stroke="none" xml:space="preserve">ThermalNoiseRemoval</text>
    </g>
    <g fill="rgb(238,255,204)" text-rendering="geometricPrecision" shape-rendering="geometricPrecision" transform="matrix(1,0,0,1,-152,-68)" stroke="rgb(238,255,204)">
      <rect x="268.8" width="90" height="30" y="180.628" clip-path="url(#clipPath2)" stroke="none"/>
    </g>
    <g text-rendering="geometricPrecision" stroke-miterlimit="1.45" shape-rendering="geometricPrecision" transform="matrix(1,0,0,1,-152,-68)" stroke-linecap="butt">
      <rect fill="none" x="268.8" width="90" height="30" y="180.628" clip-path="url(#clipPath2)"/>
      <text x="299.4562" xml:space="preserve" y="200.3419" clip-path="url(#clipPath2)" font-family="sans-serif" stroke="none">Read</text>
      <path fill="none" d="M494.028 270.628 L494.028 300.628" clip-path="url(#clipPath2)"/>
      <path d="M494.028 308.628 L499.028 296.628 L494.028 299.628 L489.028 296.628 Z" clip-path="url(#clipPath2)" stroke="none"/>
      <path fill="none" d="M494.028 338.628 L494.028 368.628" clip-path="url(#clipPath2)"/>
      <path d="M494.028 376.628 L499.028 364.628 L494.028 367.628 L489.028 364.628 Z" clip-path="url(#clipPath2)" stroke="none"/>
      <path fill="none" d="M494.028 521.628 L494.028 550.128" clip-path="url(#clipPath2)"/>
      <path d="M494.028 558.128 L499.028 546.128 L494.028 549.128 L489.028 546.128 Z" clip-path="url(#clipPath2)" stroke="none"/>
      <path fill="none" d="M494.028 588.128 L494.028 610.128" clip-path="url(#clipPath2)"/>
      <path d="M494.028 618.128 L499.028 606.128 L494.028 609.128 L489.028 606.128 Z" clip-path="url(#clipPath2)" stroke="none"/>
      <path fill="none" d="M494.028 648.128 L494.028 760.128" clip-path="url(#clipPath2)"/>
      <path d="M494.028 768.128 L499.028 756.128 L494.028 759.128 L489.028 756.128 Z" clip-path="url(#clipPath2)" stroke="none"/>
      <path fill="none" d="M587.0009 391.628 L547.028 391.628" clip-path="url(#clipPath2)"/>
      <path d="M539.028 391.628 L551.028 396.628 L548.028 391.628 L551.028 386.628 Z" clip-path="url(#clipPath2)" stroke="none"/>
      <path fill="none" d="M587.0189 633.128 L555.408 633.128" clip-path="url(#clipPath2)"/>
      <path d="M547.408 633.128 L559.408 638.128 L556.408 633.128 L559.408 628.128 Z" clip-path="url(#clipPath2)" stroke="none"/>
      <path fill="none" d="M629.528 648.106 L629.528 783.128 L555.408 783.128" clip-path="url(#clipPath2)"/>
      <path d="M547.408 783.128 L559.408 788.128 L556.408 783.128 L559.408 778.128 Z" clip-path="url(#clipPath2)" stroke="none"/>
      <path fill="none" d="M494.028 150.5987 L494.028 172.628" clip-path="url(#clipPath2)"/>
      <path d="M494.028 180.628 L499.028 168.628 L494.028 171.628 L489.028 168.628 Z" clip-path="url(#clipPath2)" stroke="none"/>
      <path fill="none" d="M494.028 210.628 L494.028 232.628" clip-path="url(#clipPath2)"/>
      <path d="M494.028 240.628 L499.028 228.628 L494.028 231.628 L489.028 228.628 Z" clip-path="url(#clipPath2)" stroke="none"/>
      <path fill="none" d="M313.8 338.628 L313.8 391.628 L441.028 391.628" clip-path="url(#clipPath2)"/>
      <path d="M449.028 391.628 L437.028 386.628 L440.028 391.628 L437.028 396.628 Z" clip-path="url(#clipPath2)" stroke="none"/>
      <path fill="none" d="M313.8 270.628 L313.8 300.628" clip-path="url(#clipPath2)"/>
      <path d="M313.8 308.628 L318.8 296.628 L313.8 299.628 L308.8 296.628 Z" clip-path="url(#clipPath2)" stroke="none"/>
      <path fill="none" d="M313.8 150.5987 L313.8 172.628" clip-path="url(#clipPath2)"/>
      <path d="M313.8 180.628 L318.8 168.628 L313.8 171.628 L308.8 168.628 Z" clip-path="url(#clipPath2)" stroke="none"/>
      <path fill="none" d="M313.8 210.628 L313.8 232.628" clip-path="url(#clipPath2)"/>
      <path d="M313.8 240.628 L318.8 228.628 L313.8 231.628 L308.8 228.628 Z" clip-path="url(#clipPath2)" stroke="none"/>
    </g>
    <g fill="rgb(245,245,245)" text-rendering="geometricPrecision" shape-rendering="geometricPrecision" transform="matrix(1,0,0,1,-152,-68)" stroke="rgb(245,245,245)">
      <rect x="614.256" y="83.2515" clip-path="url(#clipPath2)" width="161" rx="4" ry="4" height="270.3765" stroke="none"/>
      <rect x="614.256" y="83.2515" clip-path="url(#clipPath2)" fill="rgb(235,235,235)" width="161" height="22.3765" stroke="none"/>
    </g>
    <g font-size="15px" stroke-linecap="butt" transform="matrix(1,0,0,1,-152,-68)" text-rendering="geometricPrecision" font-family="sans-serif" shape-rendering="geometricPrecision" stroke-miterlimit="1.45">
      <text x="616.256" xml:space="preserve" y="100.3321" clip-path="url(#clipPath2)" stroke="none">multi-GRD</text>
      <rect x="614.256" y="83.2515" clip-path="url(#clipPath2)" fill="none" width="161" stroke-dasharray="6,2" rx="4" ry="4" height="270.3765"/>
    </g>
    <g fill="rgb(106,176,222)" text-rendering="geometricPrecision" shape-rendering="geometricPrecision" transform="matrix(1,0,0,1,-152,-68)" stroke="rgb(106,176,222)">
      <rect x="652.256" y="120.628" clip-path="url(#clipPath2)" width="85" rx="4" ry="4" height="30" stroke="none"/>
    </g>
    <g text-rendering="geometricPrecision" stroke-miterlimit="1.45" stroke-dasharray="6,2" shape-rendering="geometricPrecision" transform="matrix(1,0,0,1,-152,-68)" stroke-linecap="butt">
      <rect x="652.256" y="120.628" clip-path="url(#clipPath2)" fill="none" width="85" rx="4" ry="4" height="30"/>
      <text x="667.4132" y="140.3419" clip-path="url(#clipPath2)" font-family="sans-serif" stroke-dasharray="none" stroke="none" xml:space="preserve">S1 GRD 2</text>
    </g>
    <g fill="rgb(238,255,204)" text-rendering="geometricPrecision" shape-rendering="geometricPrecision" transform="matrix(1,0,0,1,-152,-68)" stroke="rgb(238,255,204)">
      <rect x="629.256" width="131" height="30" y="240.628" clip-path="url(#clipPath2)" stroke="none"/>
    </g>
    <g text-rendering="geometricPrecision" stroke-miterlimit="1.45" stroke-dasharray="6,2" shape-rendering="geometricPrecision" transform="matrix(1,0,0,1,-152,-68)" stroke-linecap="butt">
      <rect fill="none" x="629.256" width="131" height="30" y="240.628" clip-path="url(#clipPath2)"/>
      <text x="633.7365" y="260.3419" clip-path="url(#clipPath2)" font-family="sans-serif" stroke-dasharray="none" stroke="none" xml:space="preserve">ThermalNoiseRemoval</text>
    </g>
    <g fill="rgb(238,255,204)" text-rendering="geometricPrecision" shape-rendering="geometricPrecision" transform="matrix(1,0,0,1,-152,-68)" stroke="rgb(238,255,204)">
      <rect x="649.756" width="90" height="30" y="180.628" clip-path="url(#clipPath2)" stroke="none"/>
    </g>
    <g text-rendering="geometricPrecision" stroke-miterlimit="1.45" stroke-dasharray="6,2" shape-rendering="geometricPrecision" transform="matrix(1,0,0,1,-152,-68)" stroke-linecap="butt">
      <rect fill="none" x="649.756" width="90" height="30" y="180.628" clip-path="url(#clipPath2)"/>
      <text x="680.4122" y="200.3419" clip-path="url(#clipPath2)" font-family="sans-serif" stroke-dasharray="none" stroke="none" xml:space="preserve">Read</text>
    </g>
    <g fill="rgb(238,255,204)" text-rendering="geometricPrecision" shape-rendering="geometricPrecision" transform="matrix(1,0,0,1,-152,-68)" stroke="rgb(238,255,204)">
      <rect x="652.256" width="85" height="30" y="308.628" clip-path="url(#clipPath2)" stroke="none"/>
    </g>
    <g text-rendering="geometricPrecision" stroke-miterlimit="1.45" stroke-dasharray="6,2" shape-rendering="geometricPrecision" transform="matrix(1,0,0,1,-152,-68)" stroke-linecap="butt">
      <rect fill="none" x="652.256" width="85" height="30" y="308.628" clip-path="url(#clipPath2)"/>
      <text x="655.7443" y="328.3419" clip-path="url(#clipPath2)" font-family="sans-serif" stroke-dasharray="none" stroke="none" xml:space="preserve">SliceAssembly</text>
    </g>
    <g fill="rgb(238,255,204)" text-rendering="geometricPrecision" shape-rendering="geometricPrecision" transform="matrix(1,0,0,1,-152,-68)" stroke="rgb(238,255,204)">
      <rect x="449.028" width="90" height="30" y="434.128" clip-path="url(#clipPath2)" stroke="none"/>
    </g>
    <g text-rendering="geometricPrecision" stroke-miterlimit="1.45" stroke-dasharray="6,2" shape-rendering="geometricPrecision" transform="matrix(1,0,0,1,-152,-68)" stroke-linecap="butt">
      <rect fill="none" x="449.028" width="90" height="30" y="434.128" clip-path="url(#clipPath2)"/>
      <text x="475.3483" y="453.8419" clip-path="url(#clipPath2)" font-family="sans-serif" stroke-dasharray="none" stroke="none" xml:space="preserve">Subset</text>
    </g>
    <g fill="rgb(106,176,222)" text-rendering="geometricPrecision" shape-rendering="geometricPrecision" transform="matrix(1,0,0,1,-152,-68)" stroke="rgb(106,176,222)">
      <rect x="587.028" y="434.128" clip-path="url(#clipPath2)" width="85" rx="4" ry="4" height="30" stroke="none"/>
    </g>
    <g text-rendering="geometricPrecision" stroke-miterlimit="1.45" shape-rendering="geometricPrecision" transform="matrix(1,0,0,1,-152,-68)" stroke-linecap="butt">
      <rect x="587.028" y="434.128" clip-path="url(#clipPath2)" fill="none" width="85" rx="4" ry="4" height="30"/>
      <text x="619.1921" xml:space="preserve" y="453.8419" clip-path="url(#clipPath2)" font-family="sans-serif" stroke="none">AOI</text>
      <path fill="none" stroke-dasharray="6,2" d="M694.756 150.5987 L694.756 172.628" clip-path="url(#clipPath2)"/>
      <path stroke-dasharray="6,2" d="M694.756 180.628 L699.756 168.628 L694.756 171.628 L689.756 168.628 Z" clip-path="url(#clipPath2)" stroke="none"/>
      <path fill="none" stroke-dasharray="6,2" d="M694.756 210.628 L694.756 232.628" clip-path="url(#clipPath2)"/>
      <path stroke-dasharray="6,2" d="M694.756 240.628 L699.756 228.628 L694.756 231.628 L689.756 228.628 Z" clip-path="url(#clipPath2)" stroke="none"/>
      <path fill="none" stroke-dasharray="6,2" d="M694.756 270.628 L694.756 300.628" clip-path="url(#clipPath2)"/>
      <path stroke-dasharray="6,2" d="M694.756 308.628 L699.756 296.628 L694.756 299.628 L689.756 296.628 Z" clip-path="url(#clipPath2)" stroke="none"/>
      <path fill="none" stroke-dasharray="6,2" d="M538.3062 270.628 L644.679 306.6636" clip-path="url(#clipPath2)"/>
      <path stroke-dasharray="6,2" d="M652.256 309.2304 L642.4947 300.6445 L643.7318 306.3427 L639.2862 310.1158 Z" clip-path="url(#clipPath2)" stroke="none"/>
      <path fill="none" stroke-dasharray="6,2" d="M652.256 323.628 L582.278 323.628" clip-path="url(#clipPath2)"/>
      <path stroke-dasharray="6,2" d="M574.278 323.628 L586.278 328.628 L583.278 323.628 L586.278 318.628 Z" clip-path="url(#clipPath2)" stroke="none"/>
      <path fill="none" d="M494.028 406.628 L494.028 426.128" clip-path="url(#clipPath2)"/>
      <path d="M494.028 434.128 L499.028 422.128 L494.028 425.128 L489.028 422.128 Z" clip-path="url(#clipPath2)" stroke="none"/>
      <path fill="none" d="M494.028 464.128 L494.028 483.628" clip-path="url(#clipPath2)"/>
      <path d="M494.028 491.628 L499.028 479.628 L494.028 482.628 L489.028 479.628 Z" clip-path="url(#clipPath2)" stroke="none"/>
      <path fill="none" d="M587.0189 449.128 L547.028 449.128" clip-path="url(#clipPath2)"/>
      <path d="M539.028 449.128 L551.028 454.128 L548.028 449.128 L551.028 444.128 Z" clip-path="url(#clipPath2)" stroke="none"/>
    </g>
    <g fill="rgb(245,245,245)" text-rendering="geometricPrecision" shape-rendering="geometricPrecision" transform="matrix(1,0,0,1,-152,-68)" stroke="rgb(245,245,245)">
      <rect x="167.056" y="580.7515" clip-path="url(#clipPath2)" width="120" rx="4" ry="4" height="82.3765" stroke="none"/>
      <rect x="167.056" y="580.7515" clip-path="url(#clipPath2)" fill="rgb(235,235,235)" width="120" height="22.3765" stroke="none"/>
    </g>
    <g font-size="15px" stroke-linecap="butt" transform="matrix(1,0,0,1,-152,-68)" text-rendering="geometricPrecision" font-family="sans-serif" shape-rendering="geometricPrecision" stroke-miterlimit="1.45">
      <text x="169.056" xml:space="preserve" y="597.8321" clip-path="url(#clipPath2)" stroke="none">scatteringArea</text>
      <rect x="167.056" y="580.7515" clip-path="url(#clipPath2)" fill="none" width="120" stroke-dasharray="6,2" rx="4" ry="4" height="82.3765"/>
    </g>
    <g fill="rgb(238,255,204)" text-rendering="geometricPrecision" shape-rendering="geometricPrecision" transform="matrix(1,0,0,1,-152,-68)" stroke="rgb(238,255,204)">
      <rect x="182.056" width="90" height="30" y="618.128" clip-path="url(#clipPath2)" stroke="none"/>
    </g>
    <g text-rendering="geometricPrecision" stroke-miterlimit="1.45" stroke-dasharray="6,2" shape-rendering="geometricPrecision" transform="matrix(1,0,0,1,-152,-68)" stroke-linecap="butt">
      <rect fill="none" x="182.056" width="90" height="30" y="618.128" clip-path="url(#clipPath2)"/>
      <text x="196.7044" y="637.8419" clip-path="url(#clipPath2)" font-family="sans-serif" stroke-dasharray="none" stroke="none" xml:space="preserve">BandMaths</text>
      <path fill="none" d="M449.0144 573 L227.056 573 L227.056 610.1465" clip-path="url(#clipPath2)"/>
      <path d="M227.056 618.1465 L232.056 606.1465 L227.056 609.1465 L222.056 606.1465 Z" clip-path="url(#clipPath2)" stroke="none"/>
      <path fill="none" d="M362.18 633.128 L280.056 633.128" clip-path="url(#clipPath2)"/>
      <path d="M272.056 633.128 L284.056 638.128 L281.056 633.128 L284.056 628.128 Z" clip-path="url(#clipPath2)" stroke="none"/>
      <path fill="none" d="M227.0616 648.128 L227.112 783.128 L361.5 783.128" clip-path="url(#clipPath2)"/>
    </g>
    <g fill="rgb(245,245,245)" text-rendering="geometricPrecision" shape-rendering="geometricPrecision" transform="matrix(1,0,0,1,-152,-68)" stroke="rgb(245,245,245)">
      <rect x="296.704" y="655.7515" clip-path="url(#clipPath2)" width="134.296" rx="4" ry="4" height="82.3765" stroke="none"/>
      <rect x="296.704" y="655.7515" clip-path="url(#clipPath2)" fill="rgb(235,235,235)" width="134.296" height="22.3765" stroke="none"/>
    </g>
    <g font-size="15px" stroke-linecap="butt" transform="matrix(1,0,0,1,-152,-68)" text-rendering="geometricPrecision" font-family="sans-serif" shape-rendering="geometricPrecision" stroke-miterlimit="1.45">
      <text x="298.704" xml:space="preserve" y="672.8321" clip-path="url(#clipPath2)" stroke="none">gammaSigmaRatio</text>
      <rect x="296.704" y="655.7515" clip-path="url(#clipPath2)" fill="none" width="134.296" stroke-dasharray="6,2" rx="4" ry="4" height="82.3765"/>
    </g>
    <g fill="rgb(238,255,204)" text-rendering="geometricPrecision" shape-rendering="geometricPrecision" transform="matrix(1,0,0,1,-152,-68)" stroke="rgb(238,255,204)">
      <rect x="316.796" width="90" height="30" y="693.128" clip-path="url(#clipPath2)" stroke="none"/>
    </g>
    <g text-rendering="geometricPrecision" stroke-miterlimit="1.45" stroke-dasharray="6,2" shape-rendering="geometricPrecision" transform="matrix(1,0,0,1,-152,-68)" stroke-linecap="butt">
      <rect fill="none" x="316.796" width="90" height="30" y="693.128" clip-path="url(#clipPath2)"/>
      <text x="331.4444" y="712.8419" clip-path="url(#clipPath2)" font-family="sans-serif" stroke-dasharray="none" stroke="none" xml:space="preserve">BandMaths</text>
      <path fill="none" d="M440.648 633.128 L362.056 633.128 L361.8757 685.1281" clip-path="url(#clipPath2)"/>
      <path d="M361.848 693.128 L366.8896 681.1454 L361.8792 684.1281 L356.8896 681.1107 Z" clip-path="url(#clipPath2)" stroke="none"/>
      <path fill="none" d="M361.848 723.128 L362.056 783.128 L432.648 783.128" clip-path="url(#clipPath2)"/>
      <path d="M440.648 783.128 L428.648 778.128 L431.648 783.128 L428.648 788.128 Z" clip-path="url(#clipPath2)" stroke="none"/>
    </g>
    <g fill="rgb(245,245,245)" text-rendering="geometricPrecision" shape-rendering="geometricPrecision" transform="matrix(1,0,0,1,-152,-68)" stroke="rgb(245,245,245)">
      <rect x="316.796" y="820.7515" clip-path="url(#clipPath2)" width="165.124" rx="4" ry="4" height="202.3765" stroke="none"/>
      <rect x="316.796" y="820.7515" clip-path="url(#clipPath2)" fill="rgb(235,235,235)" width="165.124" height="22.3765" stroke="none"/>
    </g>
    <g font-size="15px" stroke-linecap="butt" transform="matrix(1,0,0,1,-152,-68)" text-rendering="geometricPrecision" font-family="sans-serif" shape-rendering="geometricPrecision" stroke-miterlimit="1.45">
      <text x="318.796" xml:space="preserve" y="837.8321" clip-path="url(#clipPath2)" stroke="none">export_extra</text>
      <rect x="316.796" y="820.7515" clip-path="url(#clipPath2)" fill="none" width="165.124" stroke-dasharray="6,2" rx="4" ry="4" height="202.3765"/>
    </g>
    <g fill="rgb(238,255,204)" text-rendering="geometricPrecision" shape-rendering="geometricPrecision" transform="matrix(1,0,0,1,-152,-68)" stroke="rgb(238,255,204)">
      <rect x="364.04" width="90" height="30" y="858.128" clip-path="url(#clipPath2)" stroke="none"/>
    </g>
    <g text-rendering="geometricPrecision" stroke-miterlimit="1.45" stroke-dasharray="6,2" shape-rendering="geometricPrecision" transform="matrix(1,0,0,1,-152,-68)" stroke-linecap="butt">
      <rect fill="none" x="364.04" width="90" height="30" y="858.128" clip-path="url(#clipPath2)"/>
      <text x="395.042" y="877.8419" clip-path="url(#clipPath2)" font-family="sans-serif" stroke-dasharray="none" stroke="none" xml:space="preserve">Write</text>
    </g>
    <g fill="rgb(106,176,222)" text-rendering="geometricPrecision" shape-rendering="geometricPrecision" transform="matrix(1,0,0,1,-152,-68)" stroke="rgb(106,176,222)">
      <rect x="351.16" y="918.128" clip-path="url(#clipPath2)" width="115.76" rx="4" ry="4" height="30" stroke="none"/>
    </g>
    <g text-rendering="geometricPrecision" stroke-miterlimit="1.45" stroke-dasharray="6,2" shape-rendering="geometricPrecision" transform="matrix(1,0,0,1,-152,-68)" stroke-linecap="butt">
      <rect x="351.16" y="918.128" clip-path="url(#clipPath2)" fill="none" width="115.76" rx="4" ry="4" height="30"/>
      <text x="355.6699" y="937.8419" clip-path="url(#clipPath2)" font-family="sans-serif" stroke-dasharray="none" stroke="none" xml:space="preserve">localIncidenceAngle</text>
    </g>
    <g fill="rgb(106,176,222)" text-rendering="geometricPrecision" shape-rendering="geometricPrecision" transform="matrix(1,0,0,1,-152,-68)" stroke="rgb(106,176,222)">
      <rect x="355.66" y="978.128" clip-path="url(#clipPath2)" width="106.76" rx="4" ry="4" height="30" stroke="none"/>
    </g>
    <g text-rendering="geometricPrecision" stroke-miterlimit="1.45" stroke-dasharray="6,2" shape-rendering="geometricPrecision" transform="matrix(1,0,0,1,-152,-68)" stroke-linecap="butt">
      <rect x="355.66" y="978.128" clip-path="url(#clipPath2)" fill="none" width="106.76" rx="4" ry="4" height="30"/>
      <text x="404.039" y="997.8419" clip-path="url(#clipPath2)" font-family="sans-serif" stroke-dasharray="none" stroke="none" xml:space="preserve">...</text>
      <path fill="none" d="M494.028 873.128 L462.0299 873.128" clip-path="url(#clipPath2)"/>
      <path d="M454.0299 873.128 L466.0299 878.128 L463.0299 873.128 L466.0299 868.128 Z" clip-path="url(#clipPath2)" stroke="none"/>
      <path fill="none" d="M364.04 873.128 L328.252 873.128 L328.252 933.128 L343.1709 933.128" clip-path="url(#clipPath2)"/>
      <path d="M351.1709 933.128 L339.1709 928.128 L342.1709 933.128 L339.1709 938.128 Z" clip-path="url(#clipPath2)" stroke="none"/>
      <path fill="none" d="M364.04 873.128 L328.252 873.128 L328.252 993.128 L347.6678 993.128" clip-path="url(#clipPath2)"/>
      <path d="M355.6678 993.128 L343.6678 988.128 L346.6678 993.128 L343.6678 998.128 Z" clip-path="url(#clipPath2)" stroke="none"/>
    </g>
    <g fill="rgb(245,245,245)" text-rendering="geometricPrecision" shape-rendering="geometricPrecision" transform="matrix(1,0,0,1,-152,-68)" stroke="rgb(245,245,245)">
      <rect x="504.652" y="820.7515" clip-path="url(#clipPath2)" width="164.296" rx="4" ry="4" height="202.3765" stroke="none"/>
      <rect x="504.652" y="820.7515" clip-path="url(#clipPath2)" fill="rgb(235,235,235)" width="164.296" height="22.3765" stroke="none"/>
    </g>
    <g font-size="15px" stroke-linecap="butt" transform="matrix(1,0,0,1,-152,-68)" text-rendering="geometricPrecision" font-family="sans-serif" shape-rendering="geometricPrecision" stroke-miterlimit="1.45">
      <text x="506.652" xml:space="preserve" y="837.8321" clip-path="url(#clipPath2)" stroke="none">backscatter</text>
      <rect x="504.652" y="820.7515" clip-path="url(#clipPath2)" fill="none" width="164.296" rx="4" ry="4" height="202.3765"/>
    </g>
    <g fill="rgb(238,255,204)" text-rendering="geometricPrecision" shape-rendering="geometricPrecision" transform="matrix(1,0,0,1,-152,-68)" stroke="rgb(238,255,204)">
      <rect x="537.61" width="98.38" height="30" y="858.128" clip-path="url(#clipPath2)" stroke="none"/>
    </g>
    <g text-rendering="geometricPrecision" stroke-miterlimit="1.45" stroke-dasharray="6,2" shape-rendering="geometricPrecision" transform="matrix(1,0,0,1,-152,-68)" stroke-linecap="butt">
      <rect fill="none" x="537.61" width="98.38" height="30" y="858.128" clip-path="url(#clipPath2)"/>
      <text x="541.7824" y="877.8419" clip-path="url(#clipPath2)" font-family="sans-serif" stroke-dasharray="none" stroke="none" xml:space="preserve">LinearToFromdB</text>
    </g>
    <g fill="rgb(238,255,204)" text-rendering="geometricPrecision" shape-rendering="geometricPrecision" transform="matrix(1,0,0,1,-152,-68)" stroke="rgb(238,255,204)">
      <rect x="541.8" width="90" height="30" y="918.128" clip-path="url(#clipPath2)" stroke="none"/>
    </g>
    <g text-rendering="geometricPrecision" stroke-miterlimit="1.45" shape-rendering="geometricPrecision" transform="matrix(1,0,0,1,-152,-68)" stroke-linecap="butt">
      <rect fill="none" x="541.8" width="90" height="30" y="918.128" clip-path="url(#clipPath2)"/>
      <text x="563.8019" xml:space="preserve" y="937.8419" clip-path="url(#clipPath2)" font-family="sans-serif" stroke="none">Write (2)</text>
    </g>
    <g fill="rgb(106,176,222)" text-rendering="geometricPrecision" shape-rendering="geometricPrecision" transform="matrix(1,0,0,1,-152,-68)" stroke="rgb(106,176,222)">
      <rect x="519.652" y="978.128" clip-path="url(#clipPath2)" width="134.296" rx="4" ry="4" height="30" stroke="none"/>
    </g>
    <g text-rendering="geometricPrecision" stroke-miterlimit="1.45" shape-rendering="geometricPrecision" transform="matrix(1,0,0,1,-152,-68)" stroke-linecap="butt">
      <rect x="519.652" y="978.128" clip-path="url(#clipPath2)" fill="none" width="134.296" rx="4" ry="4" height="30"/>
      <text x="524.4416" xml:space="preserve" y="997.8419" clip-path="url(#clipPath2)" font-family="sans-serif" stroke="none">sigma0/gamma0 elp/rtc</text>
      <path fill="none" d="M494.028 798.128 L494.028 873.128 L529.61 873.128" clip-path="url(#clipPath2)"/>
      <path d="M537.61 873.128 L525.61 868.128 L528.61 873.128 L525.61 878.128 Z" clip-path="url(#clipPath2)" stroke="none"/>
      <path fill="none" d="M586.8 888.128 L586.8 910.128" clip-path="url(#clipPath2)"/>
      <path d="M586.8 918.128 L591.8 906.128 L586.8 909.128 L581.8 906.128 Z" clip-path="url(#clipPath2)" stroke="none"/>
      <path fill="none" d="M586.8 948.128 L586.8 970.1426" clip-path="url(#clipPath2)"/>
      <path d="M586.8 978.1426 L591.8 966.1426 L586.8 969.1426 L581.8 966.1426 Z" clip-path="url(#clipPath2)" stroke="none"/>
    </g>
  </g>
</svg>
